# xmcd
#
# Track frame offsets:
#  150
#  12117
#  26349
#  53884
#  72584
#  92873
#  108067
#  120565
#  133091
#  170129
#  184741
#  203421
#  221468
#  231653
#  238276
#  260538
#
# Disc length: 3589 seconds
#
# Revision: 0
# Processed by: cddbd v1.5.1PL2 Copyright (c) Steve Scherf et al.
# Submitted via: Collectorz.com_Music_Collector 6.10
#
DISCID=e60e0310
DTITLE=Various Artist - Loves On The Dancefloor
DYEAR=2005
DGENRE=Disco
TTITLE0=The Three Degrees - When Will I See You Again
TTITLE1=Tina Charles - Dance Little Lady
TTITLE2=Evelyn Thomas - Love In The First Degree
TTITLE3=Phyllis Nelson - Move Closer
TTITLE4=Chic - Wishing On A Star
TTITLE5=Mary Wells - My Guy
TTITLE6=Percy Sledge - When A Man Loves A Woman
TTITLE7=Marv Johnson - You Got What It Takes
TTITLE8=Miquel Brown - So Many Men, So Little Time
TTITLE9=Viola Wills - Gonna Get Along Without You
TTITLE10=The Korgis - Everybody's Gotta Learn Sometimes
TTITLE11=Odyssey - Use It Up Wear It Out
TTITLE12=Ike and Tina Turner - Shake A Little Feather
TTITLE13=Madness - Can Can/Buster's Groove
TTITLE14=The Contours - This Old Heart of Mine
TTITLE15=The Drifters - Saturday At The Movies
EXTD=
EXTT0=
EXTT1=
EXTT2=
EXTT3=
EXTT4=
EXTT5=
EXTT6=
EXTT7=
EXTT8=
EXTT9=
EXTT10=
EXTT11=
EXTT12=
EXTT13=
EXTT14=
EXTT15=
PLAYORDER=
